<svg xmlns="http://www.w3.org/2000/svg" xmlns:xlink="http://www.w3.org/1999/xlink" width="500" zoomAndPan="magnify" viewBox="0 0 375 374.999991" height="500" preserveAspectRatio="xMidYMid meet" version="1.0"><defs><filter x="0%" y="0%" width="100%" height="100%" id="b37dc1d9fc"><feColorMatrix values="0 0 0 0 1 0 0 0 0 1 0 0 0 0 1 0 0 0 1 0" color-interpolation-filters="sRGB"/></filter><g/><mask id="1193bb038a"><g filter="url(#b37dc1d9fc)"><rect x="-37.5" width="450" fill="#000000" y="-37.499999" height="449.999989" fill-opacity="0.4784"/></g></mask><clipPath id="b9465d912c"><rect x="0" width="154" y="0" height="146"/></clipPath><mask id="f1c460975a"><g filter="url(#b37dc1d9fc)"><rect x="-37.5" width="450" fill="#000000" y="-37.499999" height="449.999989" fill-opacity="0.4784"/></g></mask><clipPath id="1c54b4dc96"><rect x="0" width="226" y="0" height="16"/></clipPath></defs><g mask="url(#1193bb038a)"><g transform="matrix(1, 0, 0, 1, 104, 130)"><g clip-path="url(#b9465d912c)"><g fill="#38b6ff" fill-opacity="1"><g transform="translate(1.55241, 109.273531)"><g><path d="M 24.890625 0.3125 L 6.21875 -62.453125 C 5.726562 -64.066406 5.203125 -65.242188 4.640625 -65.984375 C 4.078125 -66.722656 3.09375 -67.410156 1.6875 -68.046875 L 0.421875 -68.578125 L 0.421875 -69.625 L 28.375 -69.625 L 28.375 -68.578125 L 26.15625 -67.734375 C 24.539062 -67.097656 23.453125 -66.320312 22.890625 -65.40625 C 22.328125 -64.488281 22.289062 -63.222656 22.78125 -61.609375 L 34.28125 -17.71875 L 46.734375 -54.546875 L 44.3125 -62.03125 C 43.820312 -63.507812 43.363281 -64.632812 42.9375 -65.40625 C 42.519531 -66.1875 41.816406 -66.820312 40.828125 -67.3125 L 38.5 -68.578125 L 38.5 -69.625 L 64.984375 -69.625 L 64.984375 -68.578125 L 61.71875 -67.3125 C 60.3125 -66.820312 59.519531 -66.097656 59.34375 -65.140625 C 59.164062 -64.191406 59.320312 -62.976562 59.8125 -61.5 L 73.21875 -16.671875 L 85.875 -60.65625 C 86.363281 -62.34375 86.535156 -63.820312 86.390625 -65.09375 C 86.253906 -66.363281 85.378906 -67.28125 83.765625 -67.84375 L 81.546875 -68.578125 L 81.546875 -69.625 L 96.21875 -69.625 L 96.21875 -68.578125 L 93.46875 -67.515625 C 92.0625 -67.023438 91.078125 -66.25 90.515625 -65.1875 C 89.953125 -64.132812 89.460938 -62.835938 89.046875 -61.296875 L 71.53125 0.3125 L 64.25 0.3125 L 48.421875 -49.265625 L 32.171875 0.3125 Z M 24.890625 0.3125 "/></g></g></g><g fill="#38b6ff" fill-opacity="1"><g transform="translate(98.714188, 109.273531)"><g><path d="M 25 1.90625 C 21.132812 1.90625 17.195312 1.425781 13.1875 0.46875 C 9.175781 -0.476562 5.835938 -1.722656 3.171875 -3.265625 L 3.6875 -17.625 L 4.75 -17.625 L 8.015625 -10.765625 C 9.003906 -8.796875 10.0625 -7.050781 11.1875 -5.53125 C 12.3125 -4.019531 13.859375 -2.84375 15.828125 -2 C 17.234375 -1.300781 18.585938 -0.828125 19.890625 -0.578125 C 21.191406 -0.335938 22.648438 -0.21875 24.265625 -0.21875 C 28.554688 -0.21875 31.945312 -1.375 34.4375 -3.6875 C 36.9375 -6.007812 38.1875 -9 38.1875 -12.65625 C 38.1875 -16.101562 37.34375 -18.789062 35.65625 -20.71875 C 33.96875 -22.65625 31.257812 -24.539062 27.53125 -26.375 L 23.203125 -28.28125 C 17.160156 -30.945312 12.429688 -34.019531 9.015625 -37.5 C 5.609375 -40.988281 3.90625 -45.613281 3.90625 -51.375 C 3.90625 -55.53125 4.976562 -59.117188 7.125 -62.140625 C 9.269531 -65.160156 12.257812 -67.476562 16.09375 -69.09375 C 19.925781 -70.71875 24.410156 -71.53125 29.546875 -71.53125 C 33.265625 -71.53125 36.796875 -71.035156 40.140625 -70.046875 C 43.484375 -69.066406 46.382812 -67.734375 48.84375 -66.046875 L 48.21875 -53.390625 L 47.15625 -53.390625 L 42.828125 -61.296875 C 41.640625 -63.753906 40.445312 -65.492188 39.25 -66.515625 C 38.050781 -67.535156 36.675781 -68.257812 35.125 -68.6875 C 34.21875 -68.96875 33.375 -69.160156 32.59375 -69.265625 C 31.820312 -69.367188 30.835938 -69.421875 29.640625 -69.421875 C 26.054688 -69.421875 23.03125 -68.378906 20.5625 -66.296875 C 18.101562 -64.222656 16.875 -61.429688 16.875 -57.921875 C 16.875 -54.328125 17.820312 -51.457031 19.71875 -49.3125 C 21.625 -47.175781 24.40625 -45.265625 28.0625 -43.578125 L 32.921875 -41.46875 C 39.671875 -38.507812 44.519531 -35.359375 47.46875 -32.015625 C 50.425781 -28.679688 51.90625 -24.375 51.90625 -19.09375 C 51.90625 -12.90625 49.566406 -7.859375 44.890625 -3.953125 C 40.210938 -0.046875 33.582031 1.90625 25 1.90625 Z M 25 1.90625 "/></g></g></g></g></g></g><g mask="url(#f1c460975a)"><g transform="matrix(1, 0, 0, 1, 72, 249)"><g clip-path="url(#1c54b4dc96)"><g fill="#ffffff" fill-opacity="1"><g transform="translate(0.914626, 11.936702)"><g><path d="M 4.589844 0 L 7.074219 0 L 10.75 -8.675781 L 10.765625 -8.675781 L 14.429688 0 L 16.914062 0 L 21.503906 -10.425781 L 19.382812 -10.425781 L 15.648438 -1.734375 L 15.621094 -1.734375 L 12.046875 -10.425781 L 9.457031 -10.425781 L 5.898438 -1.734375 L 5.882812 -1.734375 L 2.117188 -10.425781 L -0.015625 -10.425781 Z M 4.589844 0 "/></g></g></g><g fill="#ffffff" fill-opacity="1"><g transform="translate(25.681488, 11.936702)"><g><path d="M 0.0585938 0 L 2.191406 0 L 3.382812 -2.28125 L 9.914062 -2.28125 L 11.105469 0 L 13.25 0 L 7.867188 -10.425781 L 5.484375 -10.425781 Z M 3.984375 -3.707031 L 6.648438 -8.941406 L 6.675781 -8.941406 L 9.324219 -3.707031 Z M 3.984375 -3.707031 "/></g></g></g><g fill="#ffffff" fill-opacity="1"><g transform="translate(42.256497, 11.936702)"><g><path d="M 6.722656 0.351562 C 9.972656 0.351562 12.148438 -1 12.148438 -3 C 12.148438 -4.675781 10.808594 -5.574219 7.707031 -6 L 5.265625 -6.339844 C 3.632812 -6.558594 2.941406 -6.972656 2.941406 -7.675781 C 2.941406 -8.632812 4.234375 -9.296875 6.042969 -9.296875 C 7.855469 -9.296875 9.515625 -8.558594 10.324219 -7.515625 L 11.28125 -8.707031 C 10.355469 -9.925781 8.339844 -10.78125 6.03125 -10.78125 C 3.042969 -10.78125 0.925781 -9.558594 0.925781 -7.546875 C 0.925781 -5.925781 2.089844 -5.101562 4.808594 -4.75 L 7.28125 -4.367188 C 9.28125 -4.089844 10.132812 -3.601562 10.132812 -2.824219 C 10.132812 -1.867188 8.808594 -1.160156 6.824219 -1.160156 C 4.398438 -1.160156 2.160156 -2.191406 1.398438 -3.675781 L 0.292969 -2.5 C 1.28125 -0.824219 3.824219 0.351562 6.722656 0.351562 Z M 6.722656 0.351562 "/></g></g></g><g fill="#ffffff" fill-opacity="1"><g transform="translate(57.963792, 11.936702)"><g><path d="M 0.734375 0 L 2.78125 0 L 2.78125 -4.675781 L 10.558594 -4.675781 L 10.558594 0 L 12.589844 0 L 12.589844 -10.425781 L 10.558594 -10.425781 L 10.558594 -6.222656 L 2.78125 -6.222656 L 2.78125 -10.425781 L 0.734375 -10.425781 Z M 0.734375 0 "/></g></g></g><g fill="#ffffff" fill-opacity="1"><g transform="translate(74.553507, 11.936702)"><g><path d="M 0.734375 0 L 11.25 0 L 11.25 -1.484375 L 2.722656 -1.484375 L 2.722656 -4.675781 L 10.515625 -4.675781 L 10.515625 -6.042969 L 2.722656 -6.042969 L 2.722656 -8.925781 L 11.105469 -8.925781 L 11.105469 -10.425781 L 0.734375 -10.425781 Z M 0.734375 0 "/></g></g></g><g fill="#ffffff" fill-opacity="1"><g transform="translate(89.363666, 11.936702)"><g><path d="M 11.632812 0.292969 C 12.441406 0.292969 13.191406 -0.101562 13.632812 -0.648438 L 13.015625 -1.617188 C 12.796875 -1.28125 12.472656 -1.042969 12.148438 -1.042969 C 11.75 -1.042969 11.546875 -1.324219 11.367188 -1.675781 L 10.632812 -3.164062 C 10.382812 -3.722656 10.046875 -4.148438 9.546875 -4.414062 L 9.546875 -4.425781 C 11.457031 -4.632812 12.632812 -5.75 12.632812 -7.308594 C 12.632812 -9.234375 11.117188 -10.425781 8.675781 -10.425781 L 0.734375 -10.425781 L 0.734375 0 L 2.78125 0 L 2.78125 -4.042969 L 7.03125 -4.042969 C 7.765625 -4.042969 8.382812 -3.589844 8.734375 -2.851562 L 9.53125 -1.160156 C 9.925781 -0.382812 10.53125 0.292969 11.632812 0.292969 Z M 2.78125 -5.457031 L 2.78125 -8.972656 L 8.25 -8.972656 C 9.675781 -8.972656 10.589844 -8.28125 10.589844 -7.191406 C 10.589844 -6.148438 9.675781 -5.457031 8.25 -5.457031 Z M 2.78125 -5.457031 "/></g></g></g><g fill="#ffffff" fill-opacity="1"><g transform="translate(106.262234, 11.936702)"><g/></g></g><g fill="#ffffff" fill-opacity="1"><g transform="translate(113.777671, 11.936702)"><g><path d="M 6.722656 0.351562 C 9.972656 0.351562 12.148438 -1 12.148438 -3 C 12.148438 -4.675781 10.808594 -5.574219 7.707031 -6 L 5.265625 -6.339844 C 3.632812 -6.558594 2.941406 -6.972656 2.941406 -7.675781 C 2.941406 -8.632812 4.234375 -9.296875 6.042969 -9.296875 C 7.855469 -9.296875 9.515625 -8.558594 10.324219 -7.515625 L 11.28125 -8.707031 C 10.355469 -9.925781 8.339844 -10.78125 6.03125 -10.78125 C 3.042969 -10.78125 0.925781 -9.558594 0.925781 -7.546875 C 0.925781 -5.925781 2.089844 -5.101562 4.808594 -4.75 L 7.28125 -4.367188 C 9.28125 -4.089844 10.132812 -3.601562 10.132812 -2.824219 C 10.132812 -1.867188 8.808594 -1.160156 6.824219 -1.160156 C 4.398438 -1.160156 2.160156 -2.191406 1.398438 -3.675781 L 0.292969 -2.5 C 1.28125 -0.824219 3.824219 0.351562 6.722656 0.351562 Z M 6.722656 0.351562 "/></g></g></g><g fill="#ffffff" fill-opacity="1"><g transform="translate(129.484961, 11.936702)"><g><path d="M 0.734375 0 L 11.25 0 L 11.25 -1.484375 L 2.722656 -1.484375 L 2.722656 -4.675781 L 10.515625 -4.675781 L 10.515625 -6.042969 L 2.722656 -6.042969 L 2.722656 -8.925781 L 11.105469 -8.925781 L 11.105469 -10.425781 L 0.734375 -10.425781 Z M 0.734375 0 "/></g></g></g><g fill="#ffffff" fill-opacity="1"><g transform="translate(144.295125, 11.936702)"><g><path d="M 11.632812 0.292969 C 12.441406 0.292969 13.191406 -0.101562 13.632812 -0.648438 L 13.015625 -1.617188 C 12.796875 -1.28125 12.472656 -1.042969 12.148438 -1.042969 C 11.75 -1.042969 11.546875 -1.324219 11.367188 -1.675781 L 10.632812 -3.164062 C 10.382812 -3.722656 10.046875 -4.148438 9.546875 -4.414062 L 9.546875 -4.425781 C 11.457031 -4.632812 12.632812 -5.75 12.632812 -7.308594 C 12.632812 -9.234375 11.117188 -10.425781 8.675781 -10.425781 L 0.734375 -10.425781 L 0.734375 0 L 2.78125 0 L 2.78125 -4.042969 L 7.03125 -4.042969 C 7.765625 -4.042969 8.382812 -3.589844 8.734375 -2.851562 L 9.53125 -1.160156 C 9.925781 -0.382812 10.53125 0.292969 11.632812 0.292969 Z M 2.78125 -5.457031 L 2.78125 -8.972656 L 8.25 -8.972656 C 9.675781 -8.972656 10.589844 -8.28125 10.589844 -7.191406 C 10.589844 -6.148438 9.675781 -5.457031 8.25 -5.457031 Z M 2.78125 -5.457031 "/></g></g></g><g fill="#ffffff" fill-opacity="1"><g transform="translate(161.193699, 11.936702)"><g><path d="M 5.398438 0 L 7.675781 0 L 13.089844 -10.425781 L 10.898438 -10.425781 L 6.558594 -1.910156 L 6.53125 -1.910156 L 2.175781 -10.425781 L 0 -10.425781 Z M 5.398438 0 "/></g></g></g><g fill="#ffffff" fill-opacity="1"><g transform="translate(177.548106, 11.936702)"><g><path d="M 0.734375 0 L 2.765625 0 L 2.765625 -10.425781 L 0.734375 -10.425781 Z M 0.734375 0 "/></g></g></g><g fill="#ffffff" fill-opacity="1"><g transform="translate(184.313487, 11.936702)"><g><path d="M 7.75 0.339844 C 11.132812 0.339844 13.738281 -1.222656 14.441406 -3.675781 L 12.546875 -4.117188 C 12.015625 -2.367188 10.175781 -1.25 7.78125 -1.25 C 4.617188 -1.25 2.601562 -2.792969 2.601562 -5.207031 C 2.601562 -7.617188 4.441406 -9.164062 7.324219 -9.164062 C 9.414062 -9.164062 11.046875 -8.175781 11.546875 -6.617188 L 13.398438 -7.164062 C 12.632812 -9.355469 10.25 -10.75 7.28125 -10.75 C 3.164062 -10.75 0.558594 -8.589844 0.558594 -5.207031 C 0.558594 -1.792969 3.351562 0.339844 7.75 0.339844 Z M 7.75 0.339844 "/></g></g></g><g fill="#ffffff" fill-opacity="1"><g transform="translate(202.418038, 11.936702)"><g><path d="M 0.734375 0 L 11.25 0 L 11.25 -1.484375 L 2.722656 -1.484375 L 2.722656 -4.675781 L 10.515625 -4.675781 L 10.515625 -6.042969 L 2.722656 -6.042969 L 2.722656 -8.925781 L 11.105469 -8.925781 L 11.105469 -10.425781 L 0.734375 -10.425781 Z M 0.734375 0 "/></g></g></g><g fill="#ffffff" fill-opacity="1"><g transform="translate(217.219299, 11.936702)"><g/></g></g></g></g></g></svg>